<svg width="185" height="185" fill="none" xmlns="http://www.w3.org/2000/svg"><path d="M185 0H0v185h185z" fill="#7bc876"/><path d="M37.4 19.925a4.903 4.903 0 0 0-4.902 4.903v135.317a4.903 4.903 0 0 0 4.903 4.902h50.197a4.903 4.903 0 0 0 4.902-4.902v-15.317a4.903 4.903 0 0 1 4.902-4.903H147.6a4.902 4.902 0 0 0 4.902-4.902V24.826a4.903 4.903 0 0 0-4.902-4.902H37.4Z" fill="#272a2f"/><path d="M132.5 40.735v78.383a.808.808 0 0 1-.808.808H73.308a.807.807 0 0 0-.808.808v23.504a.808.808 0 0 1-.808.808H53.308a.808.808 0 0 1-.808-.808V40.892c0-.445.36-.806.806-.808l78.384-.157a.81.81 0 0 1 .81.808z" fill="#fff"/><path d="M111.689 59.925H73.31a.811.811 0 0 0-.811.811v38.378c0 .448.363.811.811.811h38.378a.811.811 0 0 0 .811-.811V60.736a.811.811 0 0 0-.811-.811z" fill="#272a2f"/></svg>